<svg id="svg" version="1.1" xmlns="http://www.w3.org/2000/svg" xmlns:xlink="http://www.w3.org/1999/xlink" width="400" height="400.55710306406684" viewBox="0, 0, 400,400.55710306406684"><g id="svgg"><path id="path0" d="M185.906 1.547 C 184.212 2.398,182.146 3.687,181.313 4.412 C 178.582 6.790,5.200 179.786,5.200 180.133 C 5.200 180.319,4.390 181.397,3.400 182.529 C 2.410 183.660,1.594 184.769,1.586 184.993 C 1.579 185.217,1.225 186.120,0.800 187.000 C -0.036 188.730,-0.435 199.307,0.384 198.012 C 0.589 197.688,0.865 197.532,0.998 197.664 C 1.357 198.024,0.776 200.000,0.311 200.000 C 0.089 200.000,0.171 200.405,0.492 200.900 C 0.814 201.395,1.202 203.036,1.354 204.547 C 1.507 206.058,2.062 208.353,2.588 209.647 C 3.635 212.224,3.367 212.937,2.279 210.470 C 1.187 207.994,0.515 205.432,0.597 204.054 C 0.639 203.347,0.522 202.675,0.337 202.561 C 0.151 202.446,0.000 204.604,0.000 207.355 C 0.000 212.751,0.041 212.893,2.964 217.600 C 4.437 219.972,177.747 393.412,181.483 396.253 C 187.201 400.601,186.303 400.400,200.000 400.400 C 213.393 400.400,213.533 400.370,218.544 396.400 C 221.059 394.408,397.200 218.068,397.200 217.543 C 397.200 217.188,397.454 216.687,397.766 216.429 C 399.608 214.900,401.384 201.497,399.598 202.601 C 399.377 202.738,399.230 203.513,399.272 204.325 C 399.358 206.023,398.683 208.683,397.571 211.026 C 397.147 211.921,396.800 212.828,396.800 213.041 C 396.800 213.255,396.267 214.053,395.616 214.815 C 394.965 215.577,394.425 216.335,394.416 216.500 C 394.383 217.111,383.600 228.464,383.600 227.888 C 383.600 227.718,385.232 225.918,387.227 223.889 C 394.673 216.317,397.747 211.060,398.799 204.100 C 399.073 202.285,399.456 200.800,399.649 200.800 C 400.191 200.800,400.064 199.297,399.500 199.033 C 399.100 198.847,399.100 198.753,399.500 198.567 C 400.116 198.279,400.220 187.783,399.611 187.407 C 399.397 187.274,398.918 186.499,398.547 185.683 C 398.177 184.867,397.182 183.358,396.337 182.328 C 395.492 181.299,394.800 180.307,394.800 180.124 C 394.800 179.738,221.541 6.929,218.684 4.466 C 217.631 3.558,215.452 2.182,213.842 1.407 L 210.916 0.000 199.950 0.000 L 188.985 0.000 185.906 1.547 M371.150 199.545 C 371.067 199.790,335.900 164.899,293.000 122.011 C 250.100 79.122,214.868 44.024,214.706 44.016 C 214.545 44.007,214.455 53.171,214.506 64.380 C 214.569 77.967,214.467 84.627,214.200 84.360 C 213.947 84.107,213.759 76.613,213.689 63.971 L 213.578 43.982 214.489 43.626 C 215.469 43.242,371.493 198.527,371.150 199.545 M107.600 121.421 C 35.143 193.896,28.400 200.562,28.400 199.716 C 28.400 199.120,184.202 43.600,184.799 43.601 C 185.129 43.602,150.390 78.621,107.600 121.421 M186.311 64.111 L 186.200 83.961 152.000 118.175 C 133.190 136.992,117.626 152.391,117.413 152.394 C 117.035 152.400,130.481 138.842,167.300 102.095 L 185.600 83.831 185.600 63.636 C 185.600 49.811,185.730 43.570,186.011 43.851 C 186.284 44.124,186.385 50.911,186.311 64.111 M182.800 66.895 L 182.800 82.990 116.303 149.495 C 72.287 193.516,49.536 216.000,49.007 216.000 C 48.191 216.000,32.800 200.999,32.800 200.204 C 32.800 199.614,181.709 50.800,182.300 50.800 C 182.692 50.800,182.800 54.279,182.800 66.895 M292.700 125.300 C 333.675 166.274,367.200 199.981,367.200 200.203 C 367.200 201.329,351.300 216.482,350.554 216.068 C 350.139 215.838,319.965 185.802,283.500 149.320 L 217.200 82.990 217.200 66.895 C 217.200 54.293,217.308 50.800,217.700 50.800 C 217.974 50.800,251.724 84.325,292.700 125.300 M219.993 89.787 C 219.985 90.227,215.200 85.336,215.200 84.889 C 215.200 84.744,216.280 85.694,217.600 87.000 C 218.920 88.306,219.997 89.561,219.993 89.787 M226.206 95.927 C 226.001 96.132,220.400 90.518,220.400 90.107 C 220.400 89.949,221.745 91.156,223.388 92.788 C 225.032 94.421,226.300 95.833,226.206 95.927 M229.988 99.388 C 231.621 101.032,232.876 102.448,232.778 102.535 C 232.680 102.623,231.195 101.278,229.477 99.547 C 227.760 97.816,226.504 96.400,226.687 96.400 C 226.870 96.400,228.356 97.745,229.988 99.388 M242.800 112.563 C 242.800 112.769,240.640 110.760,238.000 108.098 C 235.360 105.437,233.200 103.113,233.200 102.936 C 233.200 102.758,235.360 104.767,238.000 107.400 C 240.640 110.033,242.800 112.356,242.800 112.563 M245.600 115.347 C 245.600 115.565,245.060 115.139,244.400 114.400 C 243.740 113.661,243.200 112.965,243.200 112.853 C 243.200 112.742,243.740 113.168,244.400 113.800 C 245.060 114.432,245.600 115.128,245.600 115.347 M249.400 118.800 C 250.032 119.460,250.381 119.995,250.175 119.989 C 249.666 119.974,247.364 117.600,247.858 117.600 C 248.074 117.600,248.768 118.140,249.400 118.800 M252.200 121.600 C 252.832 122.260,253.170 122.800,252.950 122.800 C 252.730 122.800,252.032 122.260,251.400 121.600 C 250.768 120.940,250.430 120.400,250.650 120.400 C 250.870 120.400,251.568 120.940,252.200 121.600 M254.799 124.198 C 255.314 124.748,255.653 125.280,255.551 125.382 C 255.450 125.484,254.864 125.034,254.249 124.384 C 253.635 123.733,253.296 123.200,253.496 123.200 C 253.697 123.200,254.283 123.649,254.799 124.198 M147.980 161.835 C 113.005 196.837,108.477 201.254,109.545 199.330 C 110.284 197.997,184.766 123.833,185.065 124.132 C 185.227 124.294,168.538 141.260,147.980 161.835 M290.463 199.346 C 290.760 199.881,290.751 200.050,290.430 199.943 C 289.548 199.649,214.849 124.645,215.074 124.280 C 215.309 123.901,289.702 197.976,290.463 199.346 M186.400 144.686 L 186.400 164.524 173.200 177.762 C 157.249 193.760,156.450 194.819,156.413 200.029 C 156.375 205.312,158.034 207.546,173.346 222.835 L 186.400 235.870 186.400 255.711 C 186.400 268.507,186.258 275.641,186.000 275.800 C 185.735 275.964,185.599 269.237,185.598 255.924 L 185.596 235.800 171.674 221.800 C 158.435 208.486,157.707 207.677,156.827 205.300 C 155.264 201.074,155.964 194.779,158.252 192.491 C 158.553 192.190,158.800 191.786,158.800 191.595 C 158.800 191.403,164.830 185.229,172.200 177.874 L 185.600 164.502 185.600 144.427 C 185.600 131.146,185.735 124.436,186.000 124.600 C 186.258 124.759,186.400 131.891,186.400 144.686 M223.024 173.329 C 227.657 177.910,231.707 181.822,232.024 182.023 C 232.341 182.224,232.480 182.391,232.334 182.394 C 232.188 182.397,232.638 182.992,233.334 183.715 C 234.030 184.439,234.780 184.950,235.000 184.851 C 235.220 184.752,235.301 184.784,235.180 184.922 C 235.060 185.060,236.680 186.946,238.780 189.114 C 246.651 197.236,246.228 203.780,237.245 212.912 C 233.214 217.009,216.528 233.643,214.958 235.129 C 214.495 235.567,214.400 239.089,214.400 255.852 C 214.400 269.214,214.265 275.964,214.000 275.800 C 213.742 275.641,213.600 268.509,213.600 255.716 L 213.600 235.879 226.800 222.639 C 240.587 208.811,241.689 207.584,242.439 205.235 C 242.691 204.446,243.055 203.629,243.248 203.420 C 243.869 202.750,243.624 198.596,242.829 196.284 C 241.610 192.741,240.761 191.760,226.802 177.757 L 213.600 164.514 213.600 144.724 C 213.600 133.839,213.735 124.798,213.900 124.633 C 214.065 124.468,214.290 133.483,214.400 144.666 L 214.600 165.000 223.024 173.329 M261.600 131.353 C 261.600 131.559,260.340 130.460,258.800 128.911 C 257.260 127.361,256.000 125.943,256.000 125.758 C 256.000 125.573,257.260 126.672,258.800 128.200 C 260.340 129.728,261.600 131.147,261.600 131.353 M182.800 147.688 L 182.800 163.729 169.214 177.386 C 153.101 193.582,153.400 193.151,153.400 200.200 C 153.400 207.167,153.152 206.810,169.262 223.035 L 182.800 236.671 182.800 252.669 C 182.800 261.468,182.673 268.794,182.517 268.950 C 182.201 269.265,113.600 200.833,113.600 200.202 C 113.600 199.598,182.102 131.216,182.476 131.447 C 182.654 131.557,182.800 138.866,182.800 147.688 M286.400 200.200 C 286.400 200.832,217.799 269.266,217.483 268.950 C 217.327 268.794,217.200 261.468,217.200 252.669 L 217.200 236.671 230.739 223.035 C 246.849 206.811,246.600 207.170,246.600 200.200 C 246.600 193.221,246.853 193.585,230.742 177.370 L 217.200 163.740 217.200 147.737 C 217.200 138.935,217.327 131.606,217.483 131.450 C 217.799 131.134,286.400 199.568,286.400 200.200 M264.400 134.244 C 264.400 134.412,263.860 134.032,263.200 133.400 C 262.540 132.768,262.000 132.090,262.000 131.894 C 262.000 131.699,262.540 132.078,263.200 132.738 C 263.860 133.398,264.400 134.076,264.400 134.244 M266.953 136.768 C 266.737 137.001,264.800 135.144,264.800 134.705 C 264.800 134.510,265.319 134.856,265.954 135.475 C 266.589 136.094,267.038 136.676,266.953 136.768 M269.753 139.568 C 269.537 139.801,267.600 137.944,267.600 137.505 C 267.600 137.310,268.119 137.656,268.754 138.275 C 269.389 138.894,269.838 139.476,269.753 139.568 M272.565 142.368 C 272.324 142.609,270.400 140.739,270.400 140.264 C 270.400 140.045,270.925 140.392,271.567 141.033 C 272.208 141.675,272.658 142.276,272.565 142.368 M274.000 143.400 C 274.278 143.735,274.321 144.000,274.098 144.000 C 273.878 144.000,273.474 143.730,273.200 143.400 C 272.922 143.065,272.879 142.800,273.102 142.800 C 273.322 142.800,273.726 143.070,274.000 143.400 M276.167 145.611 C 276.808 146.265,277.157 146.800,276.942 146.800 C 276.726 146.800,276.032 146.260,275.400 145.600 C 274.768 144.940,274.419 144.405,274.625 144.411 C 274.831 144.417,275.525 144.957,276.167 145.611 M279.782 149.551 C 279.539 149.794,277.600 147.968,277.600 147.496 C 277.600 147.296,278.133 147.635,278.784 148.249 C 279.434 148.864,279.884 149.450,279.782 149.551 M282.594 152.339 C 282.330 152.603,280.400 150.770,280.400 150.255 C 280.400 150.033,280.938 150.366,281.596 150.996 C 282.254 151.626,282.703 152.231,282.594 152.339 M116.200 154.000 C 115.568 154.660,114.870 155.200,114.650 155.200 C 114.430 155.200,114.768 154.660,115.400 154.000 C 116.032 153.340,116.730 152.800,116.950 152.800 C 117.170 152.800,116.832 153.340,116.200 154.000 M285.394 155.139 C 285.130 155.403,283.200 153.570,283.200 153.055 C 283.200 152.833,283.738 153.166,284.396 153.796 C 285.054 154.426,285.503 155.031,285.394 155.139 M109.800 160.400 C 107.167 163.040,104.842 165.200,104.633 165.200 C 104.132 165.200,113.683 155.618,114.194 155.608 C 114.410 155.604,112.433 157.760,109.800 160.400 M289.798 159.536 C 289.567 159.766,286.000 156.227,286.000 155.768 C 286.000 155.582,286.896 156.312,287.991 157.391 C 289.086 158.469,289.899 159.434,289.798 159.536 M291.800 161.200 C 292.432 161.860,292.781 162.395,292.575 162.389 C 292.066 162.374,289.764 160.000,290.258 160.000 C 290.474 160.000,291.168 160.540,291.800 161.200 M294.600 164.000 C 295.232 164.660,295.581 165.195,295.375 165.189 C 294.866 165.174,292.564 162.800,293.058 162.800 C 293.274 162.800,293.968 163.340,294.600 164.000 M76.936 193.202 C 55.974 214.162,49.514 220.400,48.771 220.400 C 47.675 220.400,28.800 201.881,28.800 200.806 C 28.800 200.476,33.256 204.660,38.703 210.103 C 44.150 215.546,48.785 219.995,49.003 219.988 C 49.221 219.982,61.635 207.752,76.589 192.811 C 91.543 177.870,103.859 165.726,103.958 165.824 C 104.056 165.923,91.896 178.243,76.936 193.202 M336.184 205.949 C 335.953 206.180,296.000 166.206,296.000 165.743 C 296.000 165.556,305.083 174.484,316.184 185.584 C 327.285 196.684,336.285 205.848,336.184 205.949 M1.432 195.101 C 0.997 195.537,0.831 194.967,1.108 193.983 L 1.384 193.000 1.524 193.934 C 1.601 194.448,1.560 194.973,1.432 195.101 M147.584 238.176 C 168.249 258.840,185.052 275.915,184.926 276.120 C 184.691 276.499,110.297 202.423,109.537 201.054 C 108.493 199.175,112.201 202.793,147.584 238.176 M290.439 201.100 C 289.705 202.421,215.228 276.562,214.933 276.266 C 214.641 275.974,289.946 200.400,290.528 200.400 C 290.693 200.400,290.653 200.715,290.439 201.100 M371.600 200.681 C 371.600 201.525,352.148 220.400,351.279 220.400 C 350.593 220.400,348.419 218.495,343.293 213.400 C 339.419 209.550,336.423 206.400,336.636 206.400 C 336.848 206.400,340.073 209.465,343.800 213.212 C 347.528 216.959,350.803 219.974,351.078 219.912 C 351.353 219.850,355.966 215.435,361.330 210.100 C 370.484 200.995,371.600 199.971,371.600 200.681 M4.189 213.165 C 4.322 213.586,4.920 214.569,5.516 215.351 C 8.456 219.205,9.293 220.440,9.097 220.636 C 8.896 220.837,6.108 217.572,4.800 215.605 C 4.470 215.108,3.975 214.467,3.700 214.180 C 3.115 213.569,3.032 212.400,3.573 212.400 C 3.778 212.400,4.055 212.744,4.189 213.165 M88.800 220.665 C 88.800 221.222,69.770 239.996,69.203 239.998 C 68.875 239.999,73.013 235.590,78.400 230.200 C 87.409 221.185,88.800 219.910,88.800 220.665 M97.077 227.403 C 100.954 231.255,104.045 234.488,103.945 234.589 C 103.845 234.689,100.533 231.537,96.585 227.585 C 92.638 223.633,89.547 220.400,89.717 220.400 C 89.887 220.400,93.199 223.551,97.077 227.403 M303.415 227.585 C 299.467 231.537,296.155 234.689,296.055 234.588 C 295.835 234.368,309.843 220.400,310.284 220.400 C 310.453 220.400,307.362 223.633,303.415 227.585 M321.511 230.119 C 327.534 236.160,331.200 240.133,331.200 240.618 C 331.200 241.548,216.129 356.800,215.201 356.800 C 214.871 356.800,240.746 330.654,272.702 298.698 L 330.803 240.596 321.001 230.801 C 315.611 225.414,311.200 220.870,311.200 220.703 C 311.200 219.894,312.509 221.090,321.511 230.119 M11.782 223.151 C 11.539 223.394,9.600 221.568,9.600 221.096 C 9.600 220.896,10.133 221.235,10.784 221.849 C 11.434 222.464,11.884 223.050,11.782 223.151 M14.223 225.307 C 16.757 227.951,16.788 228.446,14.267 226.003 C 13.020 224.795,12.000 223.760,12.000 223.703 C 12.000 223.262,12.852 223.876,14.223 225.307 M136.304 270.907 L 182.800 317.415 182.800 333.507 C 182.800 346.149,182.692 349.600,182.298 349.600 C 181.713 349.600,73.200 241.185,73.200 240.600 C 73.200 240.077,88.877 224.400,89.400 224.400 C 89.625 224.400,110.731 245.328,136.304 270.907 M318.913 232.323 C 323.251 236.680,326.800 240.415,326.800 240.622 C 326.800 241.195,218.274 349.600,217.701 349.600 C 217.308 349.600,217.200 346.124,217.200 333.507 L 217.200 317.415 263.696 270.907 C 289.269 245.328,310.380 224.400,310.609 224.400 C 310.839 224.400,314.575 227.965,318.913 232.323 M19.200 230.747 C 19.200 230.858,18.660 230.432,18.000 229.800 C 17.340 229.168,16.800 228.472,16.800 228.253 C 16.800 228.035,17.340 228.461,18.000 229.200 C 18.660 229.939,19.200 230.635,19.200 230.747 M377.200 234.600 C 373.811 237.994,370.961 240.694,370.866 240.600 C 370.772 240.505,373.463 237.649,376.847 234.252 C 380.231 230.855,383.081 228.155,383.181 228.252 C 383.280 228.349,380.589 231.206,377.200 234.600 M27.347 238.779 C 27.108 239.028,19.600 231.509,19.600 231.021 C 19.600 230.803,21.382 232.420,23.560 234.613 C 25.738 236.806,27.442 238.681,27.347 238.779 M106.167 236.411 C 106.808 237.065,107.157 237.600,106.942 237.600 C 106.726 237.600,106.032 237.060,105.400 236.400 C 104.768 235.740,104.419 235.205,104.625 235.211 C 104.831 235.217,105.525 235.757,106.167 236.411 M294.600 236.400 C 293.968 237.060,293.274 237.600,293.058 237.600 C 292.564 237.600,294.866 235.226,295.375 235.211 C 295.581 235.205,295.232 235.740,294.600 236.400 M108.967 239.211 C 109.608 239.865,109.957 240.400,109.742 240.400 C 109.526 240.400,108.832 239.860,108.200 239.200 C 107.568 238.540,107.219 238.005,107.425 238.011 C 107.631 238.017,108.325 238.557,108.967 239.211 M291.800 239.200 C 291.168 239.860,290.474 240.400,290.258 240.400 C 289.764 240.400,292.066 238.026,292.575 238.011 C 292.781 238.005,292.432 238.540,291.800 239.200 M29.200 240.414 C 29.200 240.982,29.009 240.895,28.162 239.942 C 27.404 239.088,27.405 239.086,28.300 239.556 C 28.795 239.816,29.200 240.202,29.200 240.414 M144.164 315.500 C 166.666 337.995,185.192 356.400,185.332 356.400 C 185.472 356.400,185.545 347.217,185.494 335.993 C 185.418 319.587,185.498 315.719,185.900 316.269 C 186.284 316.794,186.400 321.532,186.400 336.689 L 186.400 356.426 185.500 356.778 C 184.527 357.159,68.800 242.150,68.800 240.802 C 68.800 240.192,72.633 243.991,144.164 315.500 M32.932 244.374 C 32.737 244.605,29.600 241.531,29.600 241.110 C 29.600 240.929,30.383 241.551,31.340 242.491 C 32.297 243.431,33.013 244.278,32.932 244.374 M288.209 242.791 C 287.131 243.886,286.167 244.700,286.068 244.601 C 285.827 244.360,289.293 240.827,289.785 240.812 C 289.997 240.805,289.288 241.696,288.209 242.791 M294.384 317.323 C 252.483 359.171,217.775 393.679,217.255 394.006 C 216.736 394.333,215.566 395.183,214.655 395.896 C 213.745 396.609,212.787 397.194,212.526 397.196 C 212.265 397.198,211.545 397.410,210.926 397.666 C 210.307 397.923,209.710 398.163,209.600 398.200 C 209.490 398.237,208.943 398.458,208.385 398.691 C 207.826 398.925,205.936 399.214,204.185 399.334 C 201.204 399.537,201.141 399.526,203.200 399.156 C 207.384 398.404,213.413 396.138,215.541 394.517 C 216.059 394.123,217.499 392.960,218.741 391.934 C 219.984 390.908,254.570 356.514,295.600 315.503 C 336.630 274.492,370.283 241.004,370.384 241.086 C 370.485 241.167,336.285 275.474,294.384 317.323 M113.989 244.575 C 113.995 244.781,113.460 244.432,112.800 243.800 C 112.140 243.168,111.600 242.474,111.600 242.258 C 111.600 241.764,113.974 244.066,113.989 244.575 M37.862 249.015 C 40.194 251.334,42.026 253.308,41.931 253.402 C 41.837 253.496,39.792 251.599,37.387 249.187 C 34.982 246.774,33.150 244.800,33.317 244.800 C 33.484 244.800,35.530 246.697,37.862 249.015 M115.999 246.198 C 116.514 246.748,116.848 247.286,116.739 247.394 C 116.631 247.503,116.026 247.054,115.396 246.396 C 114.766 245.738,114.433 245.200,114.655 245.200 C 114.878 245.200,115.483 245.649,115.999 246.198 M284.604 246.396 C 283.974 247.054,283.369 247.503,283.261 247.394 C 282.997 247.130,284.830 245.200,285.345 245.200 C 285.567 245.200,285.234 245.738,284.604 246.396 M118.799 248.998 C 119.314 249.548,119.648 250.086,119.539 250.194 C 119.431 250.303,118.826 249.854,118.196 249.196 C 117.566 248.538,117.233 248.000,117.455 248.000 C 117.678 248.000,118.283 248.449,118.799 248.998 M278.985 251.998 C 276.793 254.198,274.837 255.998,274.639 255.998 C 274.159 256.001,282.089 248.032,282.585 248.014 C 282.796 248.006,281.176 249.799,278.985 251.998 M121.599 251.798 C 122.934 253.220,122.435 253.369,121.033 251.967 C 120.392 251.325,120.045 250.800,120.264 250.800 C 120.482 250.800,121.083 251.249,121.599 251.798 M54.800 266.325 C 54.800 266.471,52.010 263.805,48.600 260.400 C 45.190 256.995,42.400 254.045,42.400 253.843 C 42.400 253.642,45.190 256.308,48.600 259.768 C 52.010 263.228,54.800 266.179,54.800 266.325 M124.600 254.800 C 125.232 255.460,125.581 255.995,125.375 255.989 C 124.866 255.974,122.564 253.600,123.058 253.600 C 123.274 253.600,123.968 254.140,124.600 254.800 M126.800 257.000 C 127.078 257.335,127.121 257.600,126.898 257.600 C 126.678 257.600,126.274 257.330,126.000 257.000 C 125.722 256.665,125.679 256.400,125.902 256.400 C 126.122 256.400,126.526 256.670,126.800 257.000 M260.372 270.600 C 252.589 278.410,246.160 284.800,246.087 284.800 C 245.460 284.800,273.513 256.435,274.162 256.412 C 274.360 256.406,268.155 262.790,260.372 270.600 M128.799 258.998 C 129.314 259.548,129.653 260.080,129.551 260.182 C 129.450 260.284,128.864 259.834,128.249 259.184 C 127.635 258.533,127.296 258.000,127.496 258.000 C 127.697 258.000,128.283 258.449,128.799 258.998 M131.599 261.798 C 132.924 263.209,132.439 263.354,131.075 261.954 C 130.456 261.319,130.110 260.800,130.305 260.800 C 130.501 260.800,131.083 261.249,131.599 261.798 M134.399 264.598 C 135.724 266.009,135.239 266.154,133.875 264.754 C 133.256 264.119,132.910 263.600,133.105 263.600 C 133.301 263.600,133.883 264.049,134.399 264.598 M138.000 268.506 C 138.000 268.701,137.460 268.322,136.800 267.662 C 136.140 267.002,135.600 266.324,135.600 266.156 C 135.600 265.988,136.140 266.368,136.800 267.000 C 137.460 267.632,138.000 268.310,138.000 268.506 M87.348 298.770 C 87.146 298.992,55.200 267.123,55.200 266.701 C 55.200 266.524,62.468 273.630,71.352 282.490 C 80.235 291.351,87.434 298.677,87.348 298.770 M144.000 274.642 C 144.000 274.827,142.740 273.728,141.200 272.200 C 139.660 270.672,138.400 269.253,138.400 269.047 C 138.400 268.841,139.660 269.940,141.200 271.489 C 142.740 273.039,144.000 274.457,144.000 274.642 M146.565 277.168 C 146.324 277.409,144.400 275.539,144.400 275.064 C 144.400 274.845,144.925 275.192,145.567 275.833 C 146.208 276.475,146.658 277.076,146.565 277.168 M148.600 278.800 C 149.232 279.460,149.570 280.000,149.350 280.000 C 149.130 280.000,148.432 279.460,147.800 278.800 C 147.168 278.140,146.830 277.600,147.050 277.600 C 147.270 277.600,147.968 278.140,148.600 278.800 M151.400 281.600 C 152.032 282.260,152.370 282.800,152.150 282.800 C 151.930 282.800,151.232 282.260,150.600 281.600 C 149.968 280.940,149.630 280.400,149.850 280.400 C 150.070 280.400,150.768 280.940,151.400 281.600 M156.800 287.547 C 156.800 287.658,156.260 287.232,155.600 286.600 C 154.940 285.968,154.400 285.272,154.400 285.053 C 154.400 284.835,154.940 285.261,155.600 286.000 C 156.260 286.739,156.800 287.435,156.800 287.547 M239.600 291.400 C 236.211 294.794,233.359 297.492,233.261 297.395 C 233.033 297.166,245.342 284.845,245.581 285.063 C 245.680 285.154,242.989 288.006,239.600 291.400 M166.800 297.470 C 166.800 297.645,164.640 295.633,162.000 293.000 C 159.360 290.367,157.200 288.041,157.200 287.831 C 157.200 287.622,159.360 289.633,162.000 292.302 C 164.640 294.970,166.800 297.296,166.800 297.470 M173.335 303.978 C 173.129 304.210,167.200 298.324,167.200 297.887 C 167.200 297.704,168.616 298.960,170.347 300.677 C 172.078 302.395,173.423 303.880,173.335 303.978 M229.988 301.012 C 228.356 302.655,226.870 304.000,226.687 304.000 C 226.504 304.000,227.760 302.584,229.477 300.853 C 231.195 299.122,232.680 297.777,232.778 297.865 C 232.876 297.952,231.621 299.368,229.988 301.012 M89.704 300.810 C 90.589 301.695,91.243 302.490,91.157 302.576 C 91.071 302.661,90.214 301.937,89.254 300.966 C 88.293 299.995,87.639 299.200,87.801 299.200 C 87.962 299.200,88.819 299.924,89.704 300.810 M94.000 305.341 C 94.000 305.566,93.460 305.232,92.800 304.600 C 92.140 303.968,91.600 303.303,91.600 303.122 C 91.600 302.942,92.140 303.275,92.800 303.863 C 93.460 304.451,94.000 305.116,94.000 305.341 M179.421 309.770 C 184.118 314.459,185.150 315.600,184.695 315.600 C 184.637 315.600,182.074 313.080,179.000 310.000 C 175.926 306.920,173.553 304.400,173.726 304.400 C 173.900 304.400,176.462 306.816,179.421 309.770 M226.400 304.505 C 226.400 304.563,223.856 307.128,220.747 310.205 C 217.638 313.282,215.241 315.530,215.420 315.200 C 216.171 313.816,226.400 303.853,226.400 304.505 M97.600 308.600 C 99.239 310.250,100.437 311.600,100.261 311.600 C 99.841 311.600,94.400 306.324,94.400 305.916 C 94.400 305.396,94.503 305.483,97.600 308.600 M140.343 351.382 C 162.044 373.042,181.060 391.755,182.600 392.966 C 185.182 394.996,186.001 395.481,189.400 396.993 C 191.232 397.809,194.358 398.722,196.800 399.155 C 198.797 399.509,198.686 399.526,195.600 399.335 C 193.730 399.219,191.840 398.911,191.400 398.651 C 190.960 398.390,189.520 397.751,188.200 397.230 C 186.880 396.709,185.428 395.949,184.974 395.542 C 184.520 395.134,183.897 394.800,183.589 394.800 C 183.281 394.800,164.393 376.170,141.616 353.400 C 118.838 330.630,100.356 312.000,100.544 312.000 C 100.732 312.000,118.641 329.722,140.343 351.382 M214.493 336.219 C 214.423 349.587,214.248 356.753,213.993 356.596 C 213.050 356.013,213.564 315.601,214.514 315.600 C 214.561 315.600,214.552 324.879,214.493 336.219 " stroke="none" fill="#fcfcfc" fill-rule="evenodd"></path><path id="path1" d="M214.489 43.626 L 213.578 43.982 213.689 63.971 C 213.759 76.613,213.947 84.107,214.200 84.360 C 214.467 84.627,214.569 77.967,214.506 64.380 C 214.455 53.171,214.545 44.007,214.706 44.016 C 214.868 44.024,250.100 79.122,293.000 122.011 C 335.900 164.899,371.067 199.790,371.150 199.545 C 371.493 198.527,215.469 43.242,214.489 43.626 M106.299 121.502 C 63.454 164.349,28.400 199.545,28.400 199.716 C 28.400 199.888,28.715 199.851,29.100 199.634 C 30.455 198.872,185.392 43.602,184.799 43.601 C 184.468 43.600,149.143 78.656,106.299 121.502 M185.600 63.636 L 185.600 83.831 167.300 102.095 C 130.481 138.842,117.035 152.400,117.413 152.394 C 117.626 152.391,133.190 136.992,152.000 118.175 L 186.200 83.961 186.311 64.111 C 186.385 50.911,186.284 44.124,186.011 43.851 C 185.730 43.570,185.600 49.811,185.600 63.636 M215.200 84.889 C 215.200 85.336,219.985 90.227,219.993 89.787 C 219.997 89.561,218.920 88.306,217.600 87.000 C 216.280 85.694,215.200 84.744,215.200 84.889 M220.400 90.107 C 220.400 90.518,226.001 96.132,226.206 95.927 C 226.300 95.833,225.032 94.421,223.388 92.788 C 221.745 91.156,220.400 89.949,220.400 90.107 M229.477 99.547 C 231.195 101.278,232.680 102.623,232.778 102.535 C 233.010 102.329,227.124 96.400,226.687 96.400 C 226.504 96.400,227.760 97.816,229.477 99.547 M233.200 102.936 C 233.200 103.113,235.360 105.437,238.000 108.098 C 240.640 110.760,242.800 112.769,242.800 112.563 C 242.800 112.356,240.640 110.033,238.000 107.400 C 235.360 104.767,233.200 102.758,233.200 102.936 M243.200 112.853 C 243.200 112.965,243.740 113.661,244.400 114.400 C 245.060 115.139,245.600 115.565,245.600 115.347 C 245.600 115.128,245.060 114.432,244.400 113.800 C 243.740 113.168,243.200 112.742,243.200 112.853 M248.633 118.789 C 249.275 119.443,249.969 119.983,250.175 119.989 C 250.381 119.995,250.032 119.460,249.400 118.800 C 248.768 118.140,248.074 117.600,247.858 117.600 C 247.643 117.600,247.992 118.135,248.633 118.789 M251.400 121.600 C 252.032 122.260,252.730 122.800,252.950 122.800 C 253.170 122.800,252.832 122.260,252.200 121.600 C 251.568 120.940,250.870 120.400,250.650 120.400 C 250.430 120.400,250.768 120.940,251.400 121.600 M254.249 124.384 C 254.864 125.034,255.450 125.484,255.551 125.382 C 255.794 125.139,253.968 123.200,253.496 123.200 C 253.296 123.200,253.635 123.733,254.249 124.384 M147.361 161.219 C 112.421 196.131,107.925 200.739,109.870 199.652 C 111.212 198.902,185.363 124.430,185.065 124.132 C 184.904 123.971,167.937 140.660,147.361 161.219 M215.074 124.280 C 214.849 124.645,289.548 199.649,290.430 199.943 C 290.751 200.050,290.760 199.881,290.463 199.346 C 289.702 197.976,215.309 123.901,215.074 124.280 M185.600 144.427 L 185.600 164.502 172.200 177.874 C 164.830 185.229,158.800 191.403,158.800 191.595 C 158.800 191.786,158.553 192.190,158.252 192.491 C 155.964 194.779,155.264 201.074,156.827 205.300 C 157.707 207.677,158.435 208.486,171.674 221.800 L 185.596 235.800 185.598 255.924 C 185.599 269.237,185.735 275.964,186.000 275.800 C 186.258 275.641,186.400 268.507,186.400 255.711 L 186.400 235.870 173.346 222.835 C 158.034 207.546,156.375 205.312,156.413 200.029 C 156.450 194.819,157.249 193.760,173.200 177.762 L 186.400 164.524 186.400 144.686 C 186.400 131.891,186.258 124.759,186.000 124.600 C 185.735 124.436,185.600 131.146,185.600 144.427 M213.900 124.633 C 213.735 124.798,213.600 133.839,213.600 144.724 L 213.600 164.514 226.802 177.757 C 240.761 191.760,241.610 192.741,242.829 196.284 C 243.624 198.596,243.869 202.750,243.248 203.420 C 243.055 203.629,242.691 204.446,242.439 205.235 C 241.689 207.584,240.587 208.811,226.800 222.639 L 213.600 235.879 213.600 255.716 C 213.600 268.509,213.742 275.641,214.000 275.800 C 214.265 275.964,214.400 269.214,214.400 255.852 C 214.400 239.089,214.495 235.567,214.958 235.129 C 216.528 233.643,233.214 217.009,237.245 212.912 C 246.228 203.780,246.651 197.236,238.780 189.114 C 236.680 186.946,235.060 185.060,235.180 184.922 C 235.301 184.784,235.220 184.752,235.000 184.851 C 234.780 184.950,234.030 184.439,233.334 183.715 C 232.638 182.992,232.188 182.397,232.334 182.394 C 232.480 182.391,232.341 182.224,232.024 182.023 C 231.707 181.822,227.657 177.910,223.024 173.329 L 214.600 165.000 214.400 144.666 C 214.290 133.483,214.065 124.468,213.900 124.633 M256.000 125.758 C 256.000 125.943,257.260 127.361,258.800 128.911 C 260.340 130.460,261.600 131.559,261.600 131.353 C 261.600 131.147,260.340 129.728,258.800 128.200 C 257.260 126.672,256.000 125.573,256.000 125.758 M262.000 131.894 C 262.000 132.090,262.540 132.768,263.200 133.400 C 263.860 134.032,264.400 134.412,264.400 134.244 C 264.400 134.076,263.860 133.398,263.200 132.738 C 262.540 132.078,262.000 131.699,262.000 131.894 M264.800 134.705 C 264.800 135.144,266.737 137.001,266.953 136.768 C 267.038 136.676,266.589 136.094,265.954 135.475 C 265.319 134.856,264.800 134.510,264.800 134.705 M267.600 137.505 C 267.600 137.944,269.537 139.801,269.753 139.568 C 269.838 139.476,269.389 138.894,268.754 138.275 C 268.119 137.656,267.600 137.310,267.600 137.505 M270.400 140.264 C 270.400 140.739,272.324 142.609,272.565 142.368 C 272.658 142.276,272.208 141.675,271.567 141.033 C 270.925 140.392,270.400 140.045,270.400 140.264 M273.200 143.400 C 273.474 143.730,273.878 144.000,274.098 144.000 C 274.321 144.000,274.278 143.735,274.000 143.400 C 273.726 143.070,273.322 142.800,273.102 142.800 C 272.879 142.800,272.922 143.065,273.200 143.400 M275.400 145.600 C 276.032 146.260,276.726 146.800,276.942 146.800 C 277.436 146.800,275.134 144.426,274.625 144.411 C 274.419 144.405,274.768 144.940,275.400 145.600 M277.600 147.496 C 277.600 147.968,279.539 149.794,279.782 149.551 C 279.884 149.450,279.434 148.864,278.784 148.249 C 278.133 147.635,277.600 147.296,277.600 147.496 M280.400 150.255 C 280.400 150.770,282.330 152.603,282.594 152.339 C 282.703 152.231,282.254 151.626,281.596 150.996 C 280.938 150.366,280.400 150.033,280.400 150.255 M115.400 154.000 C 114.768 154.660,114.430 155.200,114.650 155.200 C 114.870 155.200,115.568 154.660,116.200 154.000 C 116.832 153.340,117.170 152.800,116.950 152.800 C 116.730 152.800,116.032 153.340,115.400 154.000 M283.200 153.055 C 283.200 153.570,285.130 155.403,285.394 155.139 C 285.503 155.031,285.054 154.426,284.396 153.796 C 283.738 153.166,283.200 152.833,283.200 153.055 M109.027 160.408 C 106.401 163.044,104.424 165.200,104.633 165.200 C 104.842 165.200,107.167 163.040,109.800 160.400 C 112.433 157.760,114.410 155.604,114.194 155.608 C 113.977 155.612,111.652 157.772,109.027 160.408 M286.000 155.768 C 286.000 156.227,289.567 159.766,289.798 159.536 C 289.899 159.434,289.086 158.469,287.991 157.391 C 286.896 156.312,286.000 155.582,286.000 155.768 M291.033 161.189 C 291.675 161.843,292.369 162.383,292.575 162.389 C 292.781 162.395,292.432 161.860,291.800 161.200 C 291.168 160.540,290.474 160.000,290.258 160.000 C 290.043 160.000,290.392 160.535,291.033 161.189 M293.833 163.989 C 294.475 164.643,295.169 165.183,295.375 165.189 C 295.581 165.195,295.232 164.660,294.600 164.000 C 293.968 163.340,293.274 162.800,293.058 162.800 C 292.843 162.800,293.192 163.335,293.833 163.989 M76.589 192.811 C 61.635 207.752,49.221 219.982,49.003 219.988 C 48.785 219.995,44.150 215.546,38.703 210.103 C 33.256 204.660,28.800 200.476,28.800 200.806 C 28.800 201.881,47.675 220.400,48.771 220.400 C 49.709 220.400,104.424 166.291,103.958 165.824 C 103.859 165.726,91.543 177.870,76.589 192.811 M296.000 165.743 C 296.000 166.206,335.953 206.180,336.184 205.949 C 336.285 205.848,327.285 196.684,316.184 185.584 C 305.083 174.484,296.000 165.556,296.000 165.743 M1.108 193.983 C 0.831 194.967,0.997 195.537,1.432 195.101 C 1.560 194.973,1.601 194.448,1.524 193.934 L 1.384 193.000 1.108 193.983 M0.160 198.619 C -0.075 199.554,0.170 200.364,0.567 199.966 C 1.019 199.514,1.248 197.600,0.851 197.600 C 0.611 197.600,0.300 198.058,0.160 198.619 M0.000 201.287 C 0.000 201.873,0.151 202.446,0.337 202.561 C 0.522 202.675,0.639 203.347,0.597 204.054 C 0.515 205.432,1.187 207.994,2.279 210.470 C 3.367 212.937,3.635 212.224,2.588 209.647 C 2.062 208.353,1.509 206.058,1.358 204.547 C 1.071 201.676,-0.000 199.104,0.000 201.287 M109.537 201.054 C 110.297 202.423,184.691 276.499,184.926 276.120 C 185.151 275.756,110.448 200.749,109.568 200.456 C 109.250 200.350,109.241 200.521,109.537 201.054 M252.432 238.185 C 231.645 258.967,214.770 276.103,214.933 276.266 C 215.228 276.562,289.705 202.421,290.439 201.100 C 291.466 199.252,287.710 202.917,252.432 238.185 M361.330 210.100 C 355.966 215.435,351.353 219.850,351.078 219.912 C 350.803 219.974,347.528 216.959,343.800 213.212 C 340.073 209.465,336.848 206.400,336.636 206.400 C 336.423 206.400,339.419 209.550,343.293 213.400 C 348.419 218.495,350.593 220.400,351.279 220.400 C 352.148 220.400,371.600 201.525,371.600 200.681 C 371.600 199.971,370.484 200.995,361.330 210.100 M398.799 204.100 C 397.747 211.060,394.673 216.317,387.227 223.889 C 385.232 225.918,383.600 227.718,383.600 227.888 C 383.600 228.464,394.383 217.111,394.416 216.500 C 394.425 216.335,394.965 215.577,395.616 214.815 C 396.267 214.053,396.800 213.255,396.800 213.041 C 396.800 212.828,397.147 211.921,397.571 211.026 C 398.683 208.683,399.358 206.023,399.272 204.325 C 399.230 203.513,399.377 202.738,399.598 202.601 C 400.092 202.296,400.134 200.800,399.649 200.800 C 399.456 200.800,399.073 202.285,398.799 204.100 M3.200 213.029 C 3.200 213.374,3.425 213.892,3.700 214.180 C 3.975 214.467,4.470 215.108,4.800 215.605 C 6.108 217.572,8.896 220.837,9.097 220.636 C 9.293 220.440,8.456 219.205,5.516 215.351 C 4.920 214.569,4.322 213.586,4.189 213.165 C 3.896 212.243,3.200 212.147,3.200 213.029 M78.400 230.200 C 73.013 235.590,68.875 239.999,69.203 239.998 C 69.770 239.996,88.800 221.222,88.800 220.665 C 88.800 219.910,87.409 221.185,78.400 230.200 M96.585 227.585 C 100.533 231.537,103.845 234.689,103.945 234.589 C 104.165 234.369,90.158 220.400,89.717 220.400 C 89.547 220.400,92.638 223.633,96.585 227.585 M302.924 227.403 C 299.045 231.254,295.954 234.488,296.055 234.588 C 296.155 234.689,299.467 231.537,303.415 227.585 C 307.362 223.633,310.453 220.400,310.284 220.400 C 310.114 220.400,306.802 223.551,302.924 227.403 M311.200 220.703 C 311.200 220.870,315.611 225.414,321.001 230.801 L 330.803 240.596 272.702 298.698 C 240.746 330.654,214.871 356.800,215.201 356.800 C 216.129 356.800,331.200 241.548,331.200 240.618 C 331.200 239.879,312.231 220.400,311.511 220.400 C 311.340 220.400,311.200 220.536,311.200 220.703 M9.600 221.096 C 9.600 221.568,11.539 223.394,11.782 223.151 C 11.884 223.050,11.434 222.464,10.784 221.849 C 10.133 221.235,9.600 220.896,9.600 221.096 M12.000 223.703 C 12.000 223.760,13.020 224.795,14.267 226.003 C 16.788 228.446,16.757 227.951,14.223 225.307 C 12.852 223.876,12.000 223.262,12.000 223.703 M16.800 228.253 C 16.800 228.472,17.340 229.168,18.000 229.800 C 18.660 230.432,19.200 230.858,19.200 230.747 C 19.200 230.635,18.660 229.939,18.000 229.200 C 17.340 228.461,16.800 228.035,16.800 228.253 M376.847 234.252 C 373.463 237.649,370.772 240.505,370.866 240.600 C 370.961 240.694,373.811 237.994,377.200 234.600 C 380.589 231.206,383.280 228.349,383.181 228.252 C 383.081 228.155,380.231 230.855,376.847 234.252 M19.600 231.021 C 19.600 231.509,27.108 239.028,27.347 238.779 C 27.442 238.681,25.738 236.806,23.560 234.613 C 21.382 232.420,19.600 230.803,19.600 231.021 M105.400 236.400 C 106.032 237.060,106.726 237.600,106.942 237.600 C 107.436 237.600,105.134 235.226,104.625 235.211 C 104.419 235.205,104.768 235.740,105.400 236.400 M293.833 236.411 C 293.192 237.065,292.843 237.600,293.058 237.600 C 293.274 237.600,293.968 237.060,294.600 236.400 C 295.232 235.740,295.581 235.205,295.375 235.211 C 295.169 235.217,294.475 235.757,293.833 236.411 M108.200 239.200 C 108.832 239.860,109.526 240.400,109.742 240.400 C 110.236 240.400,107.934 238.026,107.425 238.011 C 107.219 238.005,107.568 238.540,108.200 239.200 M291.033 239.211 C 290.392 239.865,290.043 240.400,290.258 240.400 C 290.474 240.400,291.168 239.860,291.800 239.200 C 292.432 238.540,292.781 238.005,292.575 238.011 C 292.369 238.017,291.675 238.557,291.033 239.211 M28.162 239.942 C 29.009 240.895,29.200 240.982,29.200 240.414 C 29.200 240.202,28.795 239.816,28.300 239.556 C 27.405 239.086,27.404 239.088,28.162 239.942 M68.800 240.802 C 68.800 242.150,184.527 357.159,185.500 356.778 L 186.400 356.426 186.400 336.689 C 186.400 321.532,186.284 316.794,185.900 316.269 C 185.498 315.719,185.418 319.587,185.494 335.993 C 185.545 347.217,185.472 356.400,185.332 356.400 C 185.192 356.400,166.666 337.995,144.164 315.500 C 72.633 243.991,68.800 240.192,68.800 240.802 M29.600 241.110 C 29.600 241.531,32.737 244.605,32.932 244.374 C 33.013 244.278,32.297 243.431,31.340 242.491 C 30.383 241.551,29.600 240.929,29.600 241.110 M287.644 242.622 C 286.677 243.611,285.968 244.502,286.068 244.601 C 286.167 244.700,287.131 243.886,288.209 242.791 C 289.288 241.696,289.997 240.805,289.785 240.812 C 289.573 240.818,288.610 241.633,287.644 242.622 M295.600 315.503 C 254.570 356.514,219.984 390.908,218.741 391.934 C 217.499 392.960,216.059 394.123,215.541 394.517 C 213.413 396.138,207.384 398.404,203.200 399.156 C 201.141 399.526,201.204 399.537,204.185 399.334 C 205.936 399.214,207.826 398.925,208.385 398.691 C 208.943 398.458,209.490 398.237,209.600 398.200 C 209.710 398.163,210.307 397.923,210.926 397.666 C 211.545 397.410,212.265 397.198,212.526 397.196 C 212.787 397.194,213.745 396.609,214.655 395.896 C 215.566 395.183,216.736 394.333,217.255 394.006 C 218.461 393.247,370.630 241.285,370.384 241.086 C 370.283 241.004,336.630 274.492,295.600 315.503 M111.600 242.258 C 111.600 242.474,112.140 243.168,112.800 243.800 C 113.460 244.432,113.995 244.781,113.989 244.575 C 113.974 244.066,111.600 241.764,111.600 242.258 M37.387 249.187 C 39.792 251.599,41.837 253.496,41.931 253.402 C 42.143 253.191,33.740 244.800,33.317 244.800 C 33.150 244.800,34.982 246.774,37.387 249.187 M115.396 246.396 C 116.026 247.054,116.631 247.503,116.739 247.394 C 117.003 247.130,115.170 245.200,114.655 245.200 C 114.433 245.200,114.766 245.738,115.396 246.396 M284.001 246.198 C 283.486 246.748,283.152 247.286,283.261 247.394 C 283.369 247.503,283.974 247.054,284.604 246.396 C 285.234 245.738,285.567 245.200,285.345 245.200 C 285.122 245.200,284.517 245.649,284.001 246.198 M118.196 249.196 C 118.826 249.854,119.431 250.303,119.539 250.194 C 119.803 249.930,117.970 248.000,117.455 248.000 C 117.233 248.000,117.566 248.538,118.196 249.196 M278.239 252.014 C 276.060 254.206,274.440 255.999,274.639 255.998 C 274.837 255.998,276.793 254.198,278.985 251.998 C 281.176 249.799,282.796 248.006,282.585 248.014 C 282.373 248.021,280.417 249.821,278.239 252.014 M121.033 251.967 C 121.675 252.608,122.276 253.058,122.368 252.965 C 122.609 252.724,120.739 250.800,120.264 250.800 C 120.045 250.800,120.392 251.325,121.033 251.967 M42.400 253.843 C 42.400 254.045,45.190 256.995,48.600 260.400 C 52.010 263.805,54.800 266.471,54.800 266.325 C 54.800 266.179,52.010 263.228,48.600 259.768 C 45.190 256.308,42.400 253.642,42.400 253.843 M123.833 254.789 C 124.475 255.443,125.169 255.983,125.375 255.989 C 125.581 255.995,125.232 255.460,124.600 254.800 C 123.968 254.140,123.274 253.600,123.058 253.600 C 122.843 253.600,123.192 254.135,123.833 254.789 M126.000 257.000 C 126.274 257.330,126.678 257.600,126.898 257.600 C 127.121 257.600,127.078 257.335,126.800 257.000 C 126.526 256.670,126.122 256.400,125.902 256.400 C 125.679 256.400,125.722 256.665,126.000 257.000 M260.176 270.112 C 247.916 282.428,245.641 284.800,246.087 284.800 C 246.160 284.800,252.589 278.410,260.372 270.600 C 268.155 262.790,274.360 256.406,274.162 256.412 C 273.963 256.419,267.669 262.584,260.176 270.112 M128.249 259.184 C 128.864 259.834,129.450 260.284,129.551 260.182 C 129.794 259.939,127.968 258.000,127.496 258.000 C 127.296 258.000,127.635 258.533,128.249 259.184 M131.075 261.954 C 131.694 262.589,132.276 263.038,132.368 262.953 C 132.601 262.737,130.744 260.800,130.305 260.800 C 130.110 260.800,130.456 261.319,131.075 261.954 M133.875 264.754 C 134.494 265.389,135.076 265.838,135.168 265.753 C 135.401 265.537,133.544 263.600,133.105 263.600 C 132.910 263.600,133.256 264.119,133.875 264.754 M135.600 266.156 C 135.600 266.324,136.140 267.002,136.800 267.662 C 137.460 268.322,138.000 268.701,138.000 268.506 C 138.000 268.310,137.460 267.632,136.800 267.000 C 136.140 266.368,135.600 265.988,135.600 266.156 M55.200 266.701 C 55.200 267.123,87.146 298.992,87.348 298.770 C 87.434 298.677,80.235 291.351,71.352 282.490 C 62.468 273.630,55.200 266.524,55.200 266.701 M138.400 269.047 C 138.400 269.253,139.660 270.672,141.200 272.200 C 142.740 273.728,144.000 274.827,144.000 274.642 C 144.000 274.457,142.740 273.039,141.200 271.489 C 139.660 269.940,138.400 268.841,138.400 269.047 M144.400 275.064 C 144.400 275.539,146.324 277.409,146.565 277.168 C 146.658 277.076,146.208 276.475,145.567 275.833 C 144.925 275.192,144.400 274.845,144.400 275.064 M147.800 278.800 C 148.432 279.460,149.130 280.000,149.350 280.000 C 149.570 280.000,149.232 279.460,148.600 278.800 C 147.968 278.140,147.270 277.600,147.050 277.600 C 146.830 277.600,147.168 278.140,147.800 278.800 M150.600 281.600 C 151.232 282.260,151.930 282.800,152.150 282.800 C 152.370 282.800,152.032 282.260,151.400 281.600 C 150.768 280.940,150.070 280.400,149.850 280.400 C 149.630 280.400,149.968 280.940,150.600 281.600 M154.400 285.053 C 154.400 285.272,154.940 285.968,155.600 286.600 C 156.260 287.232,156.800 287.658,156.800 287.547 C 156.800 287.435,156.260 286.739,155.600 286.000 C 154.940 285.261,154.400 284.835,154.400 285.053 M239.242 291.058 C 235.856 294.446,233.164 297.298,233.261 297.395 C 233.359 297.492,236.211 294.794,239.600 291.400 C 242.989 288.006,245.680 285.154,245.581 285.063 C 245.481 284.972,242.629 287.670,239.242 291.058 M157.200 287.831 C 157.200 288.041,159.360 290.367,162.000 293.000 C 164.640 295.633,166.800 297.645,166.800 297.470 C 166.800 297.296,164.640 294.970,162.000 292.302 C 159.360 289.633,157.200 287.622,157.200 287.831 M167.200 297.887 C 167.200 298.324,173.129 304.210,173.335 303.978 C 173.423 303.880,172.078 302.395,170.347 300.677 C 168.616 298.960,167.200 297.704,167.200 297.887 M229.477 300.853 C 227.760 302.584,226.504 304.000,226.687 304.000 C 227.124 304.000,233.010 298.071,232.778 297.865 C 232.680 297.777,231.195 299.122,229.477 300.853 M89.254 300.966 C 90.214 301.937,91.071 302.661,91.157 302.576 C 91.356 302.378,88.196 299.200,87.801 299.200 C 87.639 299.200,88.293 299.995,89.254 300.966 M91.600 303.122 C 91.600 303.303,92.140 303.968,92.800 304.600 C 93.460 305.232,94.000 305.566,94.000 305.341 C 94.000 305.116,93.460 304.451,92.800 303.863 C 92.140 303.275,91.600 302.942,91.600 303.122 M179.000 310.000 C 184.603 315.613,184.800 315.796,184.800 315.370 C 184.800 315.015,174.084 304.400,173.726 304.400 C 173.553 304.400,175.926 306.920,179.000 310.000 M220.773 309.534 C 218.008 312.320,215.599 314.870,215.420 315.200 C 215.241 315.530,217.638 313.282,220.747 310.205 C 223.856 307.128,226.400 304.563,226.400 304.505 C 226.400 304.010,225.106 305.166,220.773 309.534 M94.400 305.916 C 94.400 306.324,99.841 311.600,100.261 311.600 C 100.437 311.600,99.239 310.250,97.600 308.600 C 94.503 305.483,94.400 305.396,94.400 305.916 M141.616 353.400 C 164.393 376.170,183.281 394.800,183.589 394.800 C 183.897 394.800,184.520 395.134,184.974 395.542 C 185.428 395.949,186.880 396.709,188.200 397.230 C 189.520 397.751,190.960 398.390,191.400 398.651 C 191.840 398.911,193.730 399.219,195.600 399.335 C 198.686 399.526,198.797 399.509,196.800 399.155 C 194.358 398.722,191.232 397.809,189.400 396.993 C 186.001 395.481,185.182 394.996,182.600 392.966 C 181.060 391.755,162.044 373.042,140.343 351.382 C 118.641 329.722,100.732 312.000,100.544 312.000 C 100.356 312.000,118.838 330.630,141.616 353.400 M214.014 316.374 C 213.461 317.407,213.440 356.254,213.993 356.596 C 214.248 356.753,214.423 349.587,214.493 336.219 C 214.552 324.879,214.561 315.600,214.514 315.600 C 214.467 315.600,214.242 315.948,214.014 316.374 " stroke="none" fill="#f4f4f4" fill-rule="evenodd"></path></g></svg>